<?xml version="1.0" encoding="UTF-8"?>
<svg id="Layer_1" xmlns="http://www.w3.org/2000/svg" version="1.1" viewBox="0 0 32 32">
  <!-- Generator: Adobe Illustrator 30.0.0, SVG Export Plug-In . SVG Version: 2.1.1 Build 123)  -->
  <defs>
    <style>
      .st0 {
        fill: #5a5a5a;
      }
    </style>
  </defs>
  <path class="st0" d="M29.11,0H2.89C1.3,0,0,1.3,0,2.89v26.21c0,1.6,1.3,2.89,2.89,2.89h26.21c1.6,0,2.89-1.3,2.89-2.89V2.89C32,1.3,30.7,0,29.11,0ZM9.9,27.63c0,.47-.38.84-.84.84h-3.59c-.47,0-.84-.38-.84-.84v-15.03c0-.47.38-.84.84-.84h3.59c.47,0,.84.38.84.84v15.03ZM7.27,10.34c-1.88,0-3.41-1.53-3.41-3.41s1.53-3.41,3.41-3.41,3.41,1.53,3.41,3.41-1.53,3.41-3.41,3.41ZM28.64,27.7c0,.43-.35.77-.77.77h-3.85c-.43,0-.77-.35-.77-.77v-7.05c0-1.05.31-4.61-2.75-4.61-2.37,0-2.85,2.43-2.95,3.53v8.13c0,.43-.35.77-.77.77h-3.72c-.43,0-.77-.35-.77-.77v-15.17c0-.43.35-.77.77-.77h3.72c.43,0,.77.35.77.77v1.31c.88-1.32,2.19-2.34,4.97-2.34,6.16,0,6.13,5.76,6.13,8.92v7.28h0Z"/>
</svg>